<?xml version="1.0" encoding="iso-8859-1"?>
<!-- Generator: Adobe Illustrator 19.0.0, SVG Export Plug-In . SVG Version: 6.00 Build 0)  -->
<svg version="1.1" id="Capa_1" xmlns="http://www.w3.org/2000/svg" xmlns:xlink="http://www.w3.org/1999/xlink" x="0px" y="0px"
	 viewBox="0 0 512 512" style="enable-background:new 0 0 512 512;" xml:space="preserve">
<circle style="fill:#FFE767;" cx="256" cy="256" r="256"/>
<path style="fill:#FFC100;" d="M512,256c0-19.56-2.203-38.605-6.358-56.908l-77.024-76.948c0.05-0.096-0.015-0.198-0.097-0.182
	c-5.138-0.557-131.13-13.594-223.792,35.725C110.122,208.04,50.021,323.534,50.021,323.534l79.947,81.539
	c-3.232,12.594-4.645,20.197-4.645,20.197l82.108,82.108C223.159,510.399,239.391,512,256,512C397.385,512,512,397.385,512,256z"/>
<path style="fill:#00A94C;" d="M428.703,121.982c0,0-129.369-14.649-223.975,35.705S50.021,323.534,50.021,323.534
	s129.369,14.649,223.975-35.705S428.703,121.982,428.703,121.982z"/>
<path style="fill:#00C475;" d="M428.657,121.936c0,0-128.009,23.762-203.791,99.543c-75.782,75.782-99.543,203.791-99.543,203.791
	s128.009-23.761,203.791-99.543S428.657,121.936,428.657,121.936z"/>
<g>
	<path style="fill:#00A94C;" d="M329.113,325.722c-75.784,75.784-203.791,99.554-203.791,99.554L428.66,121.939
		C428.66,121.939,404.89,249.946,329.113,325.722z"/>
	<path style="fill:#00A94C;" d="M392.115,158.478c0,0-93.845,21.358-151.368,78.881s-78.881,151.368-78.881,151.368
		s93.845-21.358,151.368-78.881C370.757,252.324,392.115,158.478,392.115,158.478z"/>
</g>
<path style="fill:#008039;" d="M313.237,309.846c-57.528,57.528-151.366,78.881-151.366,78.881L392.118,158.48
	C392.118,158.48,370.757,252.325,313.237,309.846z"/>
<circle style="fill:#1CE566;" cx="225.73" cy="324.87" r="27.19"/>
<path style="fill:#00D800;" d="M244.95,344.09c-10.617,10.617-27.833,10.624-38.449,0.008l38.449-38.449
	C255.567,316.265,255.567,333.473,244.95,344.09z"/>
<circle style="fill:#1CE566;" cx="328.25" cy="222.34" r="27.19"/>
<path style="fill:#00D800;" d="M347.481,241.559c-10.624,10.624-27.833,10.624-38.449,0.008l38.449-38.449
	C358.098,213.734,358.098,230.942,347.481,241.559z"/>
<circle style="fill:#1CE566;" cx="276.99" cy="273.6" r="31.546"/>
<path style="fill:#00D800;" d="M299.298,295.907c-12.323,12.323-32.299,12.323-44.614,0.008l44.614-44.614
	C311.613,263.615,311.613,283.592,299.298,295.907z"/>
<g>
</g>
<g>
</g>
<g>
</g>
<g>
</g>
<g>
</g>
<g>
</g>
<g>
</g>
<g>
</g>
<g>
</g>
<g>
</g>
<g>
</g>
<g>
</g>
<g>
</g>
<g>
</g>
<g>
</g>
</svg>
